Coordinates
version=1
nRows=24
nColumns=24
inDegrees=yes

Units are S.I. units (second, meters, Newtons, ...)
Angles are in degrees.

endheader
time	pelvis_tilt	pelvis_list	pelvis_rotation	pelvis_tx	pelvis_ty	pelvis_tz	hip_flexion_r	hip_adduction_r	hip_rotation_r	knee_angle_r	ankle_angle_r	subtalar_angle_r	mtp_angle_r	hip_flexion_l	hip_adduction_l	hip_rotation_l	knee_angle_l	ankle_angle_l	subtalar_angle_l	mtp_angle_l	lumbar_extension	lumbar_bending	lumbar_rotation
      0.50400000	     -0.32324381	      5.92043597	      2.61459945	     -0.86836944	      0.97859446	      0.29504928	     26.08845566	     -5.15750605	     -5.19914468	     -6.40787248	      8.94465940	     -3.74892974	      0.91441644	    -14.89558114	      9.37745249	      5.73180066	     -7.89005484	     11.00914617	     -4.42761592	      0.25495192	     -0.51975208	     -4.30359282	     -0.39534429
      0.50816667	     -0.44122174	      5.91458657	      2.71091286	     -0.86273306	      0.97800074	      0.29539110	     26.17899157	     -5.13193158	     -5.29504786	     -6.57031684	      8.76458406	     -4.15223236	      6.14435610	    -14.70798810	      9.32717529	      5.49625831	     -8.62465652	     11.06782324	     -4.08000769	      0.80448889	     -0.36478413	     -4.30398926	     -0.39147683
      0.51233333	     -0.47854896	      5.88909886	      2.78492519	     -0.85691370	      0.97753307	      0.29570307	     26.19320473	     -5.09308303	     -5.49698029	     -6.83895232	      8.66096473	     -4.22402985	      6.15043042	    -14.80384869	      9.25090824	      5.47712054	     -9.04171067	     10.97080505	     -4.02211703	      0.81440668	     -0.26631056	     -4.27067610	     -0.47329810
      0.51650000	     -0.57856077	      5.87675331	      2.86588246	     -0.85113230	      0.97700255	      0.29603429	     26.28768752	     -5.06856938	     -5.62536264	     -7.18290635	      8.53898839	     -4.36397999	      6.17160013	    -14.77823999	      9.18767169	      5.40420030	     -9.56013329	     10.91040952	     -3.82325426	      0.85422590	     -0.11977435	     -4.25011288	     -0.60442343
      0.52066667	     -0.62372174	      5.83368954	      2.93632002	     -0.84525349	      0.97658315	      0.29639526	     26.29988449	     -5.00638825	     -5.73066355	     -7.54230544	      8.36517336	     -4.59460249	      6.19682603	    -14.81072248	      9.08669893	      5.29397740	    -10.07977988	     10.82216090	     -3.63722272	      0.91427976	     -0.01142370	     -4.18842225	     -0.67835609
      0.52483333	     -0.67611388	      5.78636513	      2.98120201	     -0.83937606	      0.97618478	      0.29682365	     26.30575141	     -4.91873534	     -5.70405689	     -7.90632281	      8.18095664	     -5.00256154	      6.28358346	    -14.78695883	      8.98412545	      5.09999518	    -10.68321508	     10.72474038	     -3.39036612	      1.13106993	      0.08961294	     -4.14114666	     -0.75603694
      0.52900000	     -0.69001538	      5.74404994	      3.02506833	     -0.83342022	      0.97587065	      0.29718962	     26.29520805	     -4.85694921	     -5.80852574	     -8.36660261	      7.95831970	     -5.15660503	      6.28774655	    -14.84693629	      8.89874711	      5.05916882	    -11.20478213	     10.51288826	     -3.42444467	      1.15603923	      0.14991971	     -4.09106142	     -0.76316661
      0.53316667	     -0.85636936	      5.71399933	      3.10100016	     -0.82751198	      0.97538877	      0.29755968	     26.42448794	     -4.80705078	     -5.76209867	     -8.80676734	      7.62441837	     -5.58144265	      6.33366870	    -14.64998014	      8.82439847	      4.93405405	    -11.90764984	     10.39022559	     -3.24998061	      1.32457328	      0.41059079	     -4.05027496	     -0.85837064
      0.53733333	     -0.90067248	      5.63060604	      3.12972187	     -0.82149487	      0.97510557	      0.29801111	     26.39577277	     -4.67400347	     -5.66350873	     -9.22952909	      7.32515354	     -6.22720499	      6.46098071	    -14.60713514	      8.68635875	      4.74429715	    -12.55037623	     10.17105237	     -3.03293519	      1.80498753	      0.52952779	     -3.93984215	     -0.89567523
      0.54150000	     -1.00339216	      5.56780939	      3.17221637	     -0.81545876	      0.97478727	      0.29841617	     26.44051411	     -4.57887482	     -5.60934348	     -9.69631113	      6.97856708	     -6.70550016	      6.63374269	    -14.47417695	      8.58120278	      4.61133539	    -13.24183524	      9.88278012	     -2.94964323	      2.56975755	      0.72067646	     -3.86216953	     -0.93277748
      0.54566667	     -1.06591645	      5.50539863	      3.18828390	     -0.80938067	      0.97453970	      0.29879438	     26.46445061	     -4.49265426	     -5.64980160	    -10.21519435	      6.52629588	     -6.86621001	      6.65140750	    -14.39721411	      8.49298549	      4.54104090	    -13.90898328	      9.57070586	     -3.01264488	      2.69959519	      0.87035835	     -3.76327026	     -0.93137869
      0.54983333	     -1.17061483	      5.42653677	      3.19349211	     -0.80333344	      0.97425885	      0.29925329	     26.51264156	     -4.36203967	     -5.50533946	    -10.71183279	      6.17417337	     -7.46399868	      6.72062190	    -14.19811982	      8.38152153	      4.34051838	    -14.71155356	      9.29911479	     -2.95013053	      3.16937351	      1.06246396	     -3.66382675	     -0.96479006
      0.55400000	     -1.22325806	      5.33220690	      3.20750608	     -0.79719190	      0.97412519	      0.29967474	     26.47390094	     -4.23043837	     -5.46000375	    -11.16374043	      5.72493010	     -7.83938056	      7.32132809	    -14.06496057	      8.24757423	      4.17653058	    -15.47098922	      8.77961929	     -2.99767524	      7.85389105	      1.20443676	     -3.53836409	     -0.92438881
      0.55816667	     -1.27895999	      5.23748203	      3.20519006	     -0.79101657	      0.97401063	      0.30007127	     26.46169489	     -4.10742688	     -5.47651249	    -11.67428423	      5.31000504	     -8.03676843	      7.31286797	    -13.91746278	      8.12900313	      4.04564804	    -16.25533910	      8.29729556	     -3.06919299	      7.87692976	      1.36703438	     -3.38776435	     -0.93379150
      0.56233333	     -1.39537061	      5.14091517	      3.21036689	     -0.78490742	      0.97386316	      0.30051443	     26.48415398	     -3.96606747	     -5.34945528	    -12.12313026	      4.87094094	     -8.45529020	      7.30093295	    -13.63036662	      8.00541657	      3.86548942	    -17.16808530	      7.83880808	     -3.09664636	      7.98320463	      1.57884616	     -3.27803437	     -0.92781273
      0.56650000	     -1.46389874	      5.01464867	      3.18077971	     -0.77875813	      0.97380132	      0.30099311	     26.46598070	     -3.78285738	     -5.22277203	    -12.60715262	      4.48759372	     -9.02961635	      7.27805826	    -13.38375571	      7.85142438	      3.64202901	    -18.08875768	      7.35211210	     -3.11166360	      8.27658577	      1.74042732	     -3.10344163	     -0.90110275
      0.57066667	     -1.52702411	      4.89347524	      3.17200764	     -0.77257242	      0.97381750	      0.30142264	     26.41373692	     -3.62478952	     -5.16890981	    -13.03906649	      4.07194298	     -9.23993124	      7.25742633	    -13.11774874	      7.70204664	      3.45819699	    -19.04499656	      6.72513458	     -3.20000652	      8.49382139	      1.90656743	     -2.94237261	     -0.87215182
      0.57483333	     -1.59611612	      4.75622937	      3.13448631	     -0.76642528	      0.97382525	      0.30190115	     26.39924078	     -3.43628291	     -5.06945626	    -13.54169978	      3.72574596	     -9.74823476	      7.20772255	    -12.79980293	      7.53741669	      3.21519098	    -20.07071711	      6.13900571	     -3.24845449	      9.05614433	      2.07022396	     -2.75011774	     -0.82757471
      0.57900000	     -1.61061354	      4.57753296	      3.11760175	     -0.76020518	      0.97398826	      0.30235767	     26.27052891	     -3.21675930	     -5.03488299	    -13.94554314	      3.42366285	     -9.94806109	      6.73035485	    -12.51600287	      7.31246562	      2.96460026	    -21.11607206	      5.34812814	     -3.40836413	     14.16514846	      2.18011813	     -2.50780966	     -0.78983237
      0.58316667	     -1.65374732	      4.45252219	      3.08482761	     -0.75405084	      0.97412318	      0.30280925	     26.21494895	     -3.05856177	     -5.00789068	    -14.42967879	      3.13231857	    -10.08898118	      6.71624762	    -12.16459871	      7.15790942	      2.74018463	    -22.22137778	      4.56772329	     -3.51904895	     14.22109086	      2.31539901	     -2.34346969	     -0.75763472
      0.58733333	     -1.69385640	      4.29371533	      3.05455433	     -0.74789734	      0.97430621	      0.30326873	     26.13403704	     -2.86340843	     -4.96828989	    -14.87521435	      2.88736546	    -10.27289467	      6.69220656	    -11.77770551	      6.96231925	      2.50221563	    -23.38714355	      3.76693168	     -3.64302699	     14.33199754	      2.45074889	     -2.12968547	     -0.71277686
      0.59150000	     -1.67836801	      4.11633550	      3.01866104	     -0.74173761	      0.97459020	      0.30372129	     26.00368991	     -2.65733866	     -4.99610358	    -15.35309162	      2.71624395	    -10.37340027	      6.67330884	    -11.42815589	      6.74216873	      2.26470313	    -24.57081384	      2.89092284	     -3.76800612	     14.41575825	      2.50512895	     -1.87511759	     -0.67844927
      0.59566667	     -1.72875783	      3.94943165	      2.99222396	     -0.73564852	      0.97481801	      0.30421888	     25.91542753	     -2.45043606	     -4.92773864	    -15.76286843	      2.53804478	    -10.56315109	      6.63027236	    -10.93239755	      6.52076116	      1.97827852	    -25.87764258	      2.01416664	     -3.88806870	     14.62104539	      2.65558829	     -1.67343167	     -0.62234292
      0.59983333	     -1.70475264	      3.72942827	      2.96613761	     -0.72956138	      0.97516340	      0.30473133	     25.74456390	     -2.18931624	     -4.91677841	    -16.18011582	      2.40072646	    -10.82782215	      5.70661184	    -10.48840403	      6.22450074	      1.66876766	    -27.20767954	      1.06235959	     -4.02618630	     19.08271398	      2.69492436	     -1.37936071	     -0.56513175
